<svg xmlns="http://www.w3.org/2000/svg" viewBox="0 0 64 64">
  <!-- Recycling Symbol -->
  <path d="M32 14 L38 24 L26 24 Z" 
        fill="#4CAF50" 
        transform="rotate(120, 32, 32)"/>
  <path d="M32 14 L38 24 L26 24 Z" 
        fill="#4CAF50" 
        transform="rotate(240, 32, 32)"/>
  <path d="M32 14 L38 24 L26 24 Z" 
        fill="#4CAF50"/>
  
  <!-- Circular Border -->
  <circle cx="32" cy="32" r="24" 
          fill="none" 
          stroke="#333" 
          stroke-width="2" 
          stroke-dasharray="4,2"/>
  
  <!-- Waste Bins -->
  <rect x="20" y="40" width="8" height="10" 
        fill="#1976D2" 
        stroke="#333"/>
  <rect x="28" y="40" width="8" height="10" 
        fill="#FFC107" 
        stroke="#333"/>
  <rect x="36" y="40" width="8" height="10" 
        fill="#FF5722" 
        stroke="#333"/>
  
  <!-- Sorting Arrows -->
  <path d="M22 37 L26 34 L26 36 L30 36 L30 38 L26 38 L26 40 L22 37" 
        fill="#333"/>
  <path d="M34 37 L38 34 L38 36 L42 36 L42 38 L38 38 L38 40 L34 37" 
        fill="#333"/>
  
  <!-- Leaf Symbol for Environmental Focus -->
  <path d="M16 20 Q24 16 20 28 Q16 24 16 20" 
        fill="#4CAF50"/>
  
  <!-- Management Chart Lines -->
  <line x1="44" y1="20" x2="48" y2="20" 
        stroke="#333" 
        stroke-width="2"/>
  <line x1="44" y1="24" x2="46" y2="24" 
        stroke="#333" 
        stroke-width="2"/>
  <line x1="44" y1="28" x2="47" y2="28" 
        stroke="#333" 
        stroke-width="2"/>
</svg>
